<svg xmlns="http://www.w3.org/2000/svg" viewBox="0 0 512 512" style="enable-background:new 0 0 512 512" xml:space="preserve"><path style="fill:#ffb150" d="M501.985 132.088 272.821 361.437c-8.438 8.444-22.117 8.444-30.555 0-12.657-12.666-33.176-12.666-45.832 0l-89.7 89.771a5.408 5.408 0 0 0-.077 7.566c2.089 2.176 2.261 5.538.129 7.671L72.359 500.9c-4.219 4.222-11.059 4.222-15.278 0l-45.833-45.87c-4.219-4.222-4.219-11.068 0-15.29l34.375-34.402a5.399 5.399 0 0 1 7.56-.078c2.174 2.091 5.534 2.263 7.666.129l89.752-89.824c12.657-12.666 12.657-33.203 0-45.87-8.438-8.444-8.438-22.136 0-30.58L379.764 9.769c8.438-8.444 42.637 12.092 76.388 45.87s54.271 68.005 45.833 76.449z"/><path style="fill:#d18839" d="M478.959 109.026 249.796 338.375c-8.438 8.444-22.117 8.444-30.555 0-12.657-12.666-33.177-12.666-45.832 0l-89.7 89.772a5.408 5.408 0 0 0-.077 7.566c2.089 2.176 2.26 5.538.128 7.671l-34.427 34.454c-4.219 4.222-11.059 4.222-15.278 0l-22.983-23.001c-4.033-4.235-3.981-10.936.176-15.096l34.374-34.402a5.399 5.399 0 0 1 7.56-.078c2.174 2.091 5.534 2.262 7.666.129l89.752-89.824c12.657-12.666 12.657-33.203 0-45.87-8.438-8.444-8.438-22.136 0-30.58L379.764 9.769c7.462-7.468 35.075 7.739 64.705 34.718 26.833 29.571 41.934 57.088 34.49 64.539z"/><path style="fill:#004859" d="m196.485 361.489-89.699 89.772a5.408 5.408 0 0 0-.077 7.566c2.089 2.176 2.26 5.538.129 7.671l-34.427 34.454c-4.219 4.222-11.059 4.222-15.278 0L11.3 455.082c-4.219-4.222-4.219-11.068 0-15.29l34.374-34.402a5.399 5.399 0 0 1 7.56-.078c2.174 2.091 5.534 2.263 7.666.129l89.752-89.824c11.347-11.356 12.513-29.034 3.514-41.699 12.709-11.841 32.602-11.576 44.979.812l38.194 38.224c12.377 12.387 12.643 32.296.812 45.016-12.654-9.004-30.318-7.837-41.666 3.519z"/><path style="fill:#007dbc" d="M57.142 500.979 37.838 481.66c-4.004-4.237-3.943-10.915.204-15.065l34.374-34.402a5.399 5.399 0 0 1 7.56-.078c2.174 2.091 5.534 2.263 7.666.129l111.122-111.229c11.347-11.356 12.513-29.034 3.514-41.699.249-.232.504-.451.759-.673l34.312 34.338c12.377 12.387 12.643 32.296.812 45.015-12.654-9.007-30.319-7.84-41.666 3.516l-89.7 89.772a5.409 5.409 0 0 0-.078 7.566c2.089 2.176 2.261 5.538.129 7.671l-34.427 34.454c-4.217 4.226-11.058 4.226-15.277.004z"/><path style="fill:#fff" d="M400.694 188.251a8.105 8.105 0 0 1-.005 11.45l-.764.764a8.076 8.076 0 0 1-11.43-.003l-.002-.002a8.105 8.105 0 0 1 .005-11.45l.763-.764a8.075 8.075 0 0 1 11.429.002l.004.003zm67.985-68.041-.002-.002a8.075 8.075 0 0 0-11.43-.002l-45.832 45.869a8.107 8.107 0 0 0-.003 11.452l.001.001a8.075 8.075 0 0 0 11.43.002l45.832-45.87a8.105 8.105 0 0 0 .004-11.45z"/><path d="M501.819 99.331c-8.987-14.98-23.176-32.47-39.954-49.25-6.838-6.84-67.415-66.233-87.815-45.837L144.886 233.432c-5.609 5.61-8.699 13.068-8.699 21.003 0 7.934 3.089 15.393 8.699 21.003a24.157 24.157 0 0 1 7.122 17.195c0 6.496-2.53 12.602-7.122 17.196l-87.997 88.007c-.11-.072-.225-.133-.337-.202a7.795 7.795 0 0 0-.471-.281c-.109-.061-.218-.124-.329-.182-.042-.02-.083-.041-.125-.06-5.077-2.601-11.503-1.784-15.718 2.428L5.535 433.916A18.77 18.77 0 0 0 0 447.278c0 5.049 1.965 9.795 5.534 13.364l45.833 45.837C55.048 510.16 59.884 512 64.719 512s9.672-1.84 13.353-5.521l34.427-34.43c4.589-4.59 5.134-11.6 1.642-16.922l88.007-88.015c9.487-9.488 24.92-9.488 34.405 0 11.574 11.574 30.406 11.577 41.983 0L507.7 137.925h.001c7.262-7.266 5.339-19.89-5.882-38.594zM190.718 355.665l-89.7 89.71c-4.571 4.574-5.157 11.754-1.71 16.989l-32.665 32.668a2.725 2.725 0 0 1-3.85 0L16.96 449.195a2.698 2.698 0 0 1-.794-1.917c0-.418.103-1.224.794-1.915l32.432-32.435 26.157 24.667a8.055 8.055 0 0 0 5.541 2.202 8.063 8.063 0 0 0 5.885-2.542 8.097 8.097 0 0 0-.341-11.438L68.697 408.9l87.616-87.625c7.65-7.651 11.862-17.822 11.862-28.643a40.407 40.407 0 0 0-3.255-15.944 24.2 24.2 0 0 1 28.861 4.13l38.194 38.197c7.714 7.716 9.182 19.292 4.31 28.503-14.953-6.868-33.265-4.155-45.567 8.147zm305.086-228.718L267.108 355.665c-4.785 4.783-12.28 5.213-17.57 1.319a40.414 40.414 0 0 0-6.136-49.415l-38.194-38.197c-13.466-13.465-33.88-15.554-49.515-6.065a13.408 13.408 0 0 1-3.338-8.872c0-3.61 1.406-7.003 3.959-9.556L385.01 16.157c2.057-.193 9.118 1.239 22.856 10.057 13.074 8.392 28.192 20.935 42.573 35.315 14.375 14.376 26.912 29.493 35.303 42.565 8.817 13.734 10.25 20.812 10.062 22.853z"/></svg>